<mxfile host="Electron" modified="2023-10-29T18:34:07.504Z" agent="Mozilla/5.0 (X11; Linux x86_64) AppleWebKit/537.36 (KHTML, like Gecko) draw.io/22.0.3 Chrome/114.0.5735.289 Electron/25.8.4 Safari/537.36" etag="3Oi2sjW9ub--jAk5LqB0" version="22.0.3" type="device">
  <diagram name="Page-1" id="13e1069c-82ec-6db2-03f1-153e76fe0fe0">
    <mxGraphModel dx="1434" dy="843" grid="1" gridSize="10" guides="1" tooltips="1" connect="1" arrows="1" fold="1" page="1" pageScale="1" pageWidth="1100" pageHeight="850" background="none" math="0" shadow="0">
      <root>
        <mxCell id="0" />
        <mxCell id="1" parent="0" />
        <mxCell id="wvOz4HxPdu_5I187t-7B-17" value="LMNode" style="html=1;whiteSpace=wrap;" parent="1" vertex="1">
          <mxGeometry x="640" y="110" width="110" height="50" as="geometry" />
        </mxCell>
        <mxCell id="wvOz4HxPdu_5I187t-7B-18" value="EKF" style="html=1;whiteSpace=wrap;" parent="1" vertex="1">
          <mxGeometry x="890" y="110" width="110" height="50" as="geometry" />
        </mxCell>
        <mxCell id="wvOz4HxPdu_5I187t-7B-19" value="Adapter" style="html=1;whiteSpace=wrap;" parent="1" vertex="1">
          <mxGeometry x="390" y="110" width="110" height="50" as="geometry" />
        </mxCell>
        <mxCell id="wvOz4HxPdu_5I187t-7B-21" value="&lt;div&gt;Perception&lt;/div&gt;" style="shape=umlActor;verticalLabelPosition=bottom;verticalAlign=top;html=1;outlineConnect=0;" parent="1" vertex="1">
          <mxGeometry x="150" y="100" width="30" height="60" as="geometry" />
        </mxCell>
        <mxCell id="wvOz4HxPdu_5I187t-7B-22" value="Velocities Sender" style="shape=umlActor;verticalLabelPosition=bottom;verticalAlign=top;html=1;outlineConnect=0;" parent="1" vertex="1">
          <mxGeometry x="270" y="100" width="30" height="60" as="geometry" />
        </mxCell>
        <mxCell id="wvOz4HxPdu_5I187t-7B-24" value="" style="endArrow=none;dashed=1;html=1;dashPattern=1 3;strokeWidth=2;rounded=0;entryX=0.5;entryY=1;entryDx=0;entryDy=0;" parent="1" source="wvOz4HxPdu_5I187t-7B-31" target="wvOz4HxPdu_5I187t-7B-19" edge="1">
          <mxGeometry width="50" height="50" relative="1" as="geometry">
            <mxPoint x="445" y="520" as="sourcePoint" />
            <mxPoint x="580" y="210" as="targetPoint" />
          </mxGeometry>
        </mxCell>
        <mxCell id="wvOz4HxPdu_5I187t-7B-26" value="" style="endArrow=none;dashed=1;html=1;dashPattern=1 3;strokeWidth=2;rounded=0;" parent="1" edge="1">
          <mxGeometry width="50" height="50" relative="1" as="geometry">
            <mxPoint x="285" y="920" as="sourcePoint" />
            <mxPoint x="285" y="190" as="targetPoint" />
          </mxGeometry>
        </mxCell>
        <mxCell id="wvOz4HxPdu_5I187t-7B-27" value="" style="endArrow=none;dashed=1;html=1;dashPattern=1 3;strokeWidth=2;rounded=0;entryX=0.5;entryY=1;entryDx=0;entryDy=0;" parent="1" source="wvOz4HxPdu_5I187t-7B-38" edge="1">
          <mxGeometry width="50" height="50" relative="1" as="geometry">
            <mxPoint x="944.6800000000001" y="520" as="sourcePoint" />
            <mxPoint x="944.6800000000001" y="160" as="targetPoint" />
          </mxGeometry>
        </mxCell>
        <mxCell id="wvOz4HxPdu_5I187t-7B-28" value="" style="endArrow=none;dashed=1;html=1;dashPattern=1 3;strokeWidth=2;rounded=0;entryX=0.5;entryY=1;entryDx=0;entryDy=0;" parent="1" source="wvOz4HxPdu_5I187t-7B-34" edge="1">
          <mxGeometry width="50" height="50" relative="1" as="geometry">
            <mxPoint x="694.6800000000001" y="520" as="sourcePoint" />
            <mxPoint x="694.6800000000001" y="160" as="targetPoint" />
          </mxGeometry>
        </mxCell>
        <mxCell id="wvOz4HxPdu_5I187t-7B-29" value="" style="endArrow=none;dashed=1;html=1;dashPattern=1 3;strokeWidth=2;rounded=0;" parent="1" edge="1">
          <mxGeometry width="50" height="50" relative="1" as="geometry">
            <mxPoint x="165" y="920" as="sourcePoint" />
            <mxPoint x="165" y="190" as="targetPoint" />
          </mxGeometry>
        </mxCell>
        <mxCell id="wvOz4HxPdu_5I187t-7B-30" value="" style="endArrow=block;html=1;rounded=0;endFill=1;" parent="1" edge="1">
          <mxGeometry width="50" height="50" relative="1" as="geometry">
            <mxPoint x="290" y="214" as="sourcePoint" />
            <mxPoint x="440" y="224.00000000000006" as="targetPoint" />
          </mxGeometry>
        </mxCell>
        <mxCell id="wvOz4HxPdu_5I187t-7B-33" value="Send Velocities (ROS)" style="edgeLabel;html=1;align=center;verticalAlign=middle;resizable=0;points=[];" parent="wvOz4HxPdu_5I187t-7B-30" vertex="1" connectable="0">
          <mxGeometry x="-0.114" relative="1" as="geometry">
            <mxPoint x="13" y="-14" as="offset" />
          </mxGeometry>
        </mxCell>
        <mxCell id="wvOz4HxPdu_5I187t-7B-32" value="" style="endArrow=none;dashed=1;html=1;dashPattern=1 3;strokeWidth=2;rounded=0;entryX=0.5;entryY=1;entryDx=0;entryDy=0;" parent="1" target="wvOz4HxPdu_5I187t-7B-31" edge="1">
          <mxGeometry width="50" height="50" relative="1" as="geometry">
            <mxPoint x="445" y="920" as="sourcePoint" />
            <mxPoint x="445" y="160" as="targetPoint" />
          </mxGeometry>
        </mxCell>
        <mxCell id="wvOz4HxPdu_5I187t-7B-31" value="" style="html=1;points=[[0,0,0,0,5],[0,1,0,0,-5],[1,0,0,0,5],[1,1,0,0,-5]];perimeter=orthogonalPerimeter;outlineConnect=0;targetShapes=umlLifeline;portConstraint=eastwest;newEdgeStyle={&quot;curved&quot;:0,&quot;rounded&quot;:0};" parent="1" vertex="1">
          <mxGeometry x="440" y="210" width="10" height="60" as="geometry" />
        </mxCell>
        <mxCell id="wvOz4HxPdu_5I187t-7B-35" value="" style="endArrow=none;dashed=1;html=1;dashPattern=1 3;strokeWidth=2;rounded=0;entryX=0.5;entryY=1;entryDx=0;entryDy=0;" parent="1" source="wvOz4HxPdu_5I187t-7B-67" target="wvOz4HxPdu_5I187t-7B-34" edge="1">
          <mxGeometry width="50" height="50" relative="1" as="geometry">
            <mxPoint x="695" y="690" as="sourcePoint" />
            <mxPoint x="694.6800000000001" y="160" as="targetPoint" />
          </mxGeometry>
        </mxCell>
        <mxCell id="wvOz4HxPdu_5I187t-7B-34" value="" style="html=1;points=[[0,0,0,0,5],[0,1,0,0,-5],[1,0,0,0,5],[1,1,0,0,-5]];perimeter=orthogonalPerimeter;outlineConnect=0;targetShapes=umlLifeline;portConstraint=eastwest;newEdgeStyle={&quot;curved&quot;:0,&quot;rounded&quot;:0};" parent="1" vertex="1">
          <mxGeometry x="690" y="220" width="10" height="300" as="geometry" />
        </mxCell>
        <mxCell id="wvOz4HxPdu_5I187t-7B-36" value="" style="endArrow=block;html=1;rounded=0;endFill=1;" parent="1" target="wvOz4HxPdu_5I187t-7B-34" edge="1">
          <mxGeometry width="50" height="50" relative="1" as="geometry">
            <mxPoint x="450" y="240" as="sourcePoint" />
            <mxPoint x="600" y="250.00000000000006" as="targetPoint" />
          </mxGeometry>
        </mxCell>
        <mxCell id="wvOz4HxPdu_5I187t-7B-37" value="&lt;div&gt;_wheel_speeds_subscription_callback()&lt;/div&gt;" style="edgeLabel;html=1;align=center;verticalAlign=middle;resizable=0;points=[];" parent="wvOz4HxPdu_5I187t-7B-36" vertex="1" connectable="0">
          <mxGeometry x="-0.114" relative="1" as="geometry">
            <mxPoint x="16" y="-10" as="offset" />
          </mxGeometry>
        </mxCell>
        <mxCell id="wvOz4HxPdu_5I187t-7B-39" value="odometry_to_velocities_transform()" style="html=1;align=left;spacingLeft=2;endArrow=block;rounded=0;edgeStyle=orthogonalEdgeStyle;curved=0;rounded=0;" parent="1" target="wvOz4HxPdu_5I187t-7B-34" edge="1">
          <mxGeometry relative="1" as="geometry">
            <mxPoint x="700" y="250" as="sourcePoint" />
            <Array as="points">
              <mxPoint x="730" y="250" />
              <mxPoint x="730" y="280" />
            </Array>
            <mxPoint x="705" y="280" as="targetPoint" />
            <mxPoint as="offset" />
          </mxGeometry>
        </mxCell>
        <mxCell id="wvOz4HxPdu_5I187t-7B-40" value="" style="endArrow=none;dashed=1;html=1;dashPattern=1 3;strokeWidth=2;rounded=0;entryX=0.5;entryY=1;entryDx=0;entryDy=0;" parent="1" source="CueBo5CrkMlO0XCjDXR9-7" target="wvOz4HxPdu_5I187t-7B-38" edge="1">
          <mxGeometry width="50" height="50" relative="1" as="geometry">
            <mxPoint x="945" y="1090" as="sourcePoint" />
            <mxPoint x="944.6800000000001" y="160" as="targetPoint" />
          </mxGeometry>
        </mxCell>
        <mxCell id="wvOz4HxPdu_5I187t-7B-38" value="" style="html=1;points=[[0,0,0,0,5],[0,1,0,0,-5],[1,0,0,0,5],[1,1,0,0,-5]];perimeter=orthogonalPerimeter;outlineConnect=0;targetShapes=umlLifeline;portConstraint=eastwest;newEdgeStyle={&quot;curved&quot;:0,&quot;rounded&quot;:0};" parent="1" vertex="1">
          <mxGeometry x="940" y="310" width="10" height="80" as="geometry" />
        </mxCell>
        <mxCell id="wvOz4HxPdu_5I187t-7B-41" value="" style="endArrow=block;html=1;rounded=0;endFill=1;entryX=-0.001;entryY=0.204;entryDx=0;entryDy=0;entryPerimeter=0;" parent="1" target="6OGqVxHeLhcwMYVrImcY-133" edge="1">
          <mxGeometry width="50" height="50" relative="1" as="geometry">
            <mxPoint x="700" y="320" as="sourcePoint" />
            <mxPoint x="940" y="320" as="targetPoint" />
          </mxGeometry>
        </mxCell>
        <mxCell id="wvOz4HxPdu_5I187t-7B-42" value="prediction_step()" style="edgeLabel;html=1;align=center;verticalAlign=middle;resizable=0;points=[];" parent="wvOz4HxPdu_5I187t-7B-41" vertex="1" connectable="0">
          <mxGeometry x="-0.114" relative="1" as="geometry">
            <mxPoint x="16" y="-10" as="offset" />
          </mxGeometry>
        </mxCell>
        <mxCell id="wvOz4HxPdu_5I187t-7B-43" value="MotionModel" style="html=1;whiteSpace=wrap;" parent="1" vertex="1">
          <mxGeometry x="1140" y="110" width="110" height="50" as="geometry" />
        </mxCell>
        <mxCell id="wvOz4HxPdu_5I187t-7B-45" value="" style="endArrow=none;dashed=1;html=1;dashPattern=1 3;strokeWidth=2;rounded=0;entryX=0.5;entryY=1;entryDx=0;entryDy=0;" parent="1" source="wvOz4HxPdu_5I187t-7B-48" edge="1">
          <mxGeometry width="50" height="50" relative="1" as="geometry">
            <mxPoint x="1195" y="520" as="sourcePoint" />
            <mxPoint x="1195" y="160" as="targetPoint" />
          </mxGeometry>
        </mxCell>
        <mxCell id="wvOz4HxPdu_5I187t-7B-46" value="ObservationModel" style="html=1;whiteSpace=wrap;" parent="1" vertex="1">
          <mxGeometry x="1330" y="110" width="110" height="50" as="geometry" />
        </mxCell>
        <mxCell id="wvOz4HxPdu_5I187t-7B-47" value="" style="endArrow=none;dashed=1;html=1;dashPattern=1 3;strokeWidth=2;rounded=0;entryX=0.5;entryY=1;entryDx=0;entryDy=0;" parent="1" source="CueBo5CrkMlO0XCjDXR9-25" edge="1">
          <mxGeometry width="50" height="50" relative="1" as="geometry">
            <mxPoint x="1385" y="1090" as="sourcePoint" />
            <mxPoint x="1385" y="160" as="targetPoint" />
          </mxGeometry>
        </mxCell>
        <mxCell id="wvOz4HxPdu_5I187t-7B-49" value="" style="endArrow=none;dashed=1;html=1;dashPattern=1 3;strokeWidth=2;rounded=0;entryX=0.5;entryY=1;entryDx=0;entryDy=0;" parent="1" target="wvOz4HxPdu_5I187t-7B-48" edge="1">
          <mxGeometry width="50" height="50" relative="1" as="geometry">
            <mxPoint x="1195" y="920" as="sourcePoint" />
            <mxPoint x="1195" y="160" as="targetPoint" />
            <Array as="points">
              <mxPoint x="1195" y="450" />
            </Array>
          </mxGeometry>
        </mxCell>
        <mxCell id="6OGqVxHeLhcwMYVrImcY-50" value="&lt;font style=&quot;font-size: 18px;&quot;&gt;[sd correction_step]&lt;/font&gt;" style="edgeLabel;html=1;align=center;verticalAlign=middle;resizable=0;points=[];" parent="wvOz4HxPdu_5I187t-7B-49" vertex="1" connectable="0">
          <mxGeometry x="-0.4029" y="4" relative="1" as="geometry">
            <mxPoint x="99" y="-55" as="offset" />
          </mxGeometry>
        </mxCell>
        <mxCell id="wvOz4HxPdu_5I187t-7B-48" value="" style="html=1;points=[[0,0,0,0,5],[0,1,0,0,-5],[1,0,0,0,5],[1,1,0,0,-5]];perimeter=orthogonalPerimeter;outlineConnect=0;targetShapes=umlLifeline;portConstraint=eastwest;newEdgeStyle={&quot;curved&quot;:0,&quot;rounded&quot;:0};" parent="1" vertex="1">
          <mxGeometry x="1190" y="330" width="10" height="40" as="geometry" />
        </mxCell>
        <mxCell id="wvOz4HxPdu_5I187t-7B-63" value="" style="endArrow=block;html=1;rounded=0;endFill=1;" parent="1" edge="1">
          <mxGeometry width="50" height="50" relative="1" as="geometry">
            <mxPoint x="170" y="590" as="sourcePoint" />
            <mxPoint x="690" y="609" as="targetPoint" />
          </mxGeometry>
        </mxCell>
        <mxCell id="wvOz4HxPdu_5I187t-7B-64" value="Send cones relative positioning (ROS)" style="edgeLabel;html=1;align=center;verticalAlign=middle;resizable=0;points=[];" parent="wvOz4HxPdu_5I187t-7B-63" vertex="1" connectable="0">
          <mxGeometry x="-0.114" relative="1" as="geometry">
            <mxPoint x="13" y="-14" as="offset" />
          </mxGeometry>
        </mxCell>
        <mxCell id="wvOz4HxPdu_5I187t-7B-68" value="" style="endArrow=none;dashed=1;html=1;dashPattern=1 3;strokeWidth=2;rounded=0;entryX=0.5;entryY=1;entryDx=0;entryDy=0;" parent="1" target="wvOz4HxPdu_5I187t-7B-67" edge="1">
          <mxGeometry width="50" height="50" relative="1" as="geometry">
            <mxPoint x="695" y="920" as="sourcePoint" />
            <mxPoint x="695" y="330" as="targetPoint" />
          </mxGeometry>
        </mxCell>
        <mxCell id="wvOz4HxPdu_5I187t-7B-67" value="" style="html=1;points=[[0,0,0,0,5],[0,1,0,0,-5],[1,0,0,0,5],[1,1,0,0,-5]];perimeter=orthogonalPerimeter;outlineConnect=0;targetShapes=umlLifeline;portConstraint=eastwest;newEdgeStyle={&quot;curved&quot;:0,&quot;rounded&quot;:0};" parent="1" vertex="1">
          <mxGeometry x="690" y="590" width="10" height="270" as="geometry" />
        </mxCell>
        <mxCell id="CueBo5CrkMlO0XCjDXR9-5" value="" style="endArrow=block;html=1;rounded=0;endFill=1;" parent="1" edge="1">
          <mxGeometry width="50" height="50" relative="1" as="geometry">
            <mxPoint x="700" y="428" as="sourcePoint" />
            <mxPoint x="940" y="428" as="targetPoint" />
          </mxGeometry>
        </mxCell>
        <mxCell id="CueBo5CrkMlO0XCjDXR9-6" value="update()" style="edgeLabel;html=1;align=center;verticalAlign=middle;resizable=0;points=[];" parent="CueBo5CrkMlO0XCjDXR9-5" vertex="1" connectable="0">
          <mxGeometry x="-0.114" relative="1" as="geometry">
            <mxPoint x="16" y="-10" as="offset" />
          </mxGeometry>
        </mxCell>
        <mxCell id="CueBo5CrkMlO0XCjDXR9-8" value="" style="endArrow=none;dashed=1;html=1;dashPattern=1 3;strokeWidth=2;rounded=0;entryX=0.5;entryY=1;entryDx=0;entryDy=0;" parent="1" source="CueBo5CrkMlO0XCjDXR9-19" target="CueBo5CrkMlO0XCjDXR9-7" edge="1">
          <mxGeometry width="50" height="50" relative="1" as="geometry">
            <mxPoint x="945" y="1090" as="sourcePoint" />
            <mxPoint x="945" y="510" as="targetPoint" />
          </mxGeometry>
        </mxCell>
        <mxCell id="CueBo5CrkMlO0XCjDXR9-7" value="" style="html=1;points=[[0,0,0,0,5],[0,1,0,0,-5],[1,0,0,0,5],[1,1,0,0,-5]];perimeter=orthogonalPerimeter;outlineConnect=0;targetShapes=umlLifeline;portConstraint=eastwest;newEdgeStyle={&quot;curved&quot;:0,&quot;rounded&quot;:0};" parent="1" vertex="1">
          <mxGeometry x="940" y="418" width="10" height="50" as="geometry" />
        </mxCell>
        <mxCell id="CueBo5CrkMlO0XCjDXR9-9" value="" style="endArrow=none;html=1;rounded=0;endFill=0;startArrow=open;startFill=0;dashed=1;" parent="1" edge="1">
          <mxGeometry width="50" height="50" relative="1" as="geometry">
            <mxPoint x="700" y="458" as="sourcePoint" />
            <mxPoint x="940" y="458" as="targetPoint" />
          </mxGeometry>
        </mxCell>
        <mxCell id="CueBo5CrkMlO0XCjDXR9-10" value="track_map, vehicle_state" style="edgeLabel;html=1;align=center;verticalAlign=middle;resizable=0;points=[];" parent="CueBo5CrkMlO0XCjDXR9-9" vertex="1" connectable="0">
          <mxGeometry x="-0.114" relative="1" as="geometry">
            <mxPoint x="16" y="-10" as="offset" />
          </mxGeometry>
        </mxCell>
        <mxCell id="CueBo5CrkMlO0XCjDXR9-12" value="&lt;div&gt;ROS2&lt;/div&gt;" style="shape=umlActor;verticalLabelPosition=bottom;verticalAlign=top;html=1;outlineConnect=0;" parent="1" vertex="1">
          <mxGeometry x="30" y="100" width="30" height="60" as="geometry" />
        </mxCell>
        <mxCell id="CueBo5CrkMlO0XCjDXR9-13" value="" style="endArrow=none;dashed=1;html=1;dashPattern=1 3;strokeWidth=2;rounded=0;" parent="1" edge="1">
          <mxGeometry width="50" height="50" relative="1" as="geometry">
            <mxPoint x="45" y="920" as="sourcePoint" />
            <mxPoint x="44.66" y="190" as="targetPoint" />
          </mxGeometry>
        </mxCell>
        <mxCell id="CueBo5CrkMlO0XCjDXR9-14" value="" style="endArrow=none;html=1;rounded=0;endFill=0;startArrow=open;startFill=0;dashed=1;" parent="1" edge="1">
          <mxGeometry width="50" height="50" relative="1" as="geometry">
            <mxPoint x="40" y="520" as="sourcePoint" />
            <mxPoint x="690" y="480" as="targetPoint" />
          </mxGeometry>
        </mxCell>
        <mxCell id="CueBo5CrkMlO0XCjDXR9-15" value="publish_localization()" style="edgeLabel;html=1;align=center;verticalAlign=middle;resizable=0;points=[];" parent="CueBo5CrkMlO0XCjDXR9-14" vertex="1" connectable="0">
          <mxGeometry x="-0.114" relative="1" as="geometry">
            <mxPoint x="16" y="-22" as="offset" />
          </mxGeometry>
        </mxCell>
        <mxCell id="CueBo5CrkMlO0XCjDXR9-17" value="" style="endArrow=none;html=1;rounded=0;endFill=0;startArrow=open;startFill=0;dashed=1;" parent="1" edge="1">
          <mxGeometry width="50" height="50" relative="1" as="geometry">
            <mxPoint x="40" y="547" as="sourcePoint" />
            <mxPoint x="690" y="507" as="targetPoint" />
          </mxGeometry>
        </mxCell>
        <mxCell id="CueBo5CrkMlO0XCjDXR9-18" value="publish_map()" style="edgeLabel;html=1;align=center;verticalAlign=middle;resizable=0;points=[];" parent="CueBo5CrkMlO0XCjDXR9-17" vertex="1" connectable="0">
          <mxGeometry x="-0.114" relative="1" as="geometry">
            <mxPoint x="16" y="-15" as="offset" />
          </mxGeometry>
        </mxCell>
        <mxCell id="CueBo5CrkMlO0XCjDXR9-19" value="" style="html=1;points=[[0,0,0,0,5],[0,1,0,0,-5],[1,0,0,0,5],[1,1,0,0,-5]];perimeter=orthogonalPerimeter;outlineConnect=0;targetShapes=umlLifeline;portConstraint=eastwest;newEdgeStyle={&quot;curved&quot;:0,&quot;rounded&quot;:0};" parent="1" vertex="1">
          <mxGeometry x="940" y="680" width="10" height="60" as="geometry" />
        </mxCell>
        <mxCell id="CueBo5CrkMlO0XCjDXR9-21" value="" style="endArrow=block;html=1;rounded=0;endFill=1;" parent="1" edge="1">
          <mxGeometry width="50" height="50" relative="1" as="geometry">
            <mxPoint x="700" y="680" as="sourcePoint" />
            <mxPoint x="920" y="680" as="targetPoint" />
          </mxGeometry>
        </mxCell>
        <mxCell id="CueBo5CrkMlO0XCjDXR9-22" value="correction_step()" style="edgeLabel;html=1;align=center;verticalAlign=middle;resizable=0;points=[];" parent="CueBo5CrkMlO0XCjDXR9-21" vertex="1" connectable="0">
          <mxGeometry x="-0.114" relative="1" as="geometry">
            <mxPoint x="16" y="-10" as="offset" />
          </mxGeometry>
        </mxCell>
        <mxCell id="CueBo5CrkMlO0XCjDXR9-25" value="" style="html=1;points=[[0,0,0,0,5],[0,1,0,0,-5],[1,0,0,0,5],[1,1,0,0,-5]];perimeter=orthogonalPerimeter;outlineConnect=0;targetShapes=umlLifeline;portConstraint=eastwest;newEdgeStyle={&quot;curved&quot;:0,&quot;rounded&quot;:0};" parent="1" vertex="1">
          <mxGeometry x="1380" y="680" width="10" height="50" as="geometry" />
        </mxCell>
        <mxCell id="6OGqVxHeLhcwMYVrImcY-25" value="" style="endArrow=none;dashed=1;html=1;dashPattern=1 3;strokeWidth=2;rounded=0;entryX=0.5;entryY=1;entryDx=0;entryDy=0;" parent="1" target="6OGqVxHeLhcwMYVrImcY-26" edge="1">
          <mxGeometry width="50" height="50" relative="1" as="geometry">
            <mxPoint x="1833" y="1015" as="sourcePoint" />
            <mxPoint x="1833" y="515" as="targetPoint" />
          </mxGeometry>
        </mxCell>
        <mxCell id="6OGqVxHeLhcwMYVrImcY-26" value="" style="html=1;points=[[0,0,0,0,5],[0,1,0,0,-5],[1,0,0,0,5],[1,1,0,0,-5]];perimeter=orthogonalPerimeter;outlineConnect=0;targetShapes=umlLifeline;portConstraint=eastwest;newEdgeStyle={&quot;curved&quot;:0,&quot;rounded&quot;:0};" parent="1" vertex="1">
          <mxGeometry x="1828" y="626" width="10" height="384" as="geometry" />
        </mxCell>
        <mxCell id="6OGqVxHeLhcwMYVrImcY-28" value="" style="endArrow=none;dashed=1;html=1;dashPattern=1 3;strokeWidth=2;rounded=0;entryX=0.5;entryY=1;entryDx=0;entryDy=0;" parent="1" target="6OGqVxHeLhcwMYVrImcY-29" edge="1">
          <mxGeometry width="50" height="50" relative="1" as="geometry">
            <mxPoint x="2273" y="1015" as="sourcePoint" />
            <mxPoint x="2273" y="85" as="targetPoint" />
          </mxGeometry>
        </mxCell>
        <mxCell id="6OGqVxHeLhcwMYVrImcY-30" value="" style="endArrow=block;html=1;rounded=0;endFill=1;" parent="1" edge="1">
          <mxGeometry width="50" height="50" relative="1" as="geometry">
            <mxPoint x="1838" y="750.16" as="sourcePoint" />
            <mxPoint x="2268" y="750.1599999999999" as="targetPoint" />
          </mxGeometry>
        </mxCell>
        <mxCell id="6OGqVxHeLhcwMYVrImcY-31" value="get_state_to_observation_matrix()" style="edgeLabel;html=1;align=center;verticalAlign=middle;resizable=0;points=[];" parent="6OGqVxHeLhcwMYVrImcY-30" vertex="1" connectable="0">
          <mxGeometry x="-0.114" relative="1" as="geometry">
            <mxPoint x="16" y="-10" as="offset" />
          </mxGeometry>
        </mxCell>
        <mxCell id="6OGqVxHeLhcwMYVrImcY-32" value="" style="endArrow=block;html=1;rounded=0;endFill=1;" parent="1" edge="1">
          <mxGeometry width="50" height="50" relative="1" as="geometry">
            <mxPoint x="1838" y="801.16" as="sourcePoint" />
            <mxPoint x="2268" y="800.75" as="targetPoint" />
          </mxGeometry>
        </mxCell>
        <mxCell id="6OGqVxHeLhcwMYVrImcY-33" value="get_observation_noise_covariance_matrix()" style="edgeLabel;html=1;align=center;verticalAlign=middle;resizable=0;points=[];" parent="6OGqVxHeLhcwMYVrImcY-32" vertex="1" connectable="0">
          <mxGeometry x="-0.114" relative="1" as="geometry">
            <mxPoint x="16" y="-10" as="offset" />
          </mxGeometry>
        </mxCell>
        <mxCell id="6OGqVxHeLhcwMYVrImcY-34" value="" style="endArrow=block;html=1;rounded=0;endFill=1;" parent="1" edge="1">
          <mxGeometry width="50" height="50" relative="1" as="geometry">
            <mxPoint x="1838" y="915.41" as="sourcePoint" />
            <mxPoint x="2268" y="915" as="targetPoint" />
          </mxGeometry>
        </mxCell>
        <mxCell id="6OGqVxHeLhcwMYVrImcY-35" value="observation_model()" style="edgeLabel;html=1;align=center;verticalAlign=middle;resizable=0;points=[];" parent="6OGqVxHeLhcwMYVrImcY-34" vertex="1" connectable="0">
          <mxGeometry x="-0.114" relative="1" as="geometry">
            <mxPoint x="16" y="-10" as="offset" />
          </mxGeometry>
        </mxCell>
        <mxCell id="6OGqVxHeLhcwMYVrImcY-36" value="get_kalman_gain()" style="html=1;align=left;spacingLeft=2;endArrow=block;rounded=0;edgeStyle=orthogonalEdgeStyle;curved=0;rounded=0;" parent="1" edge="1">
          <mxGeometry relative="1" as="geometry">
            <mxPoint x="1838" y="855" as="sourcePoint" />
            <Array as="points">
              <mxPoint x="1868" y="855" />
              <mxPoint x="1868" y="885" />
            </Array>
            <mxPoint x="1838" y="885" as="targetPoint" />
          </mxGeometry>
        </mxCell>
        <mxCell id="6OGqVxHeLhcwMYVrImcY-37" value="" style="endArrow=none;html=1;rounded=0;endFill=0;startArrow=open;startFill=0;dashed=1;" parent="1" edge="1">
          <mxGeometry width="50" height="50" relative="1" as="geometry">
            <mxPoint x="1838" y="825" as="sourcePoint" />
            <mxPoint x="2268" y="825" as="targetPoint" />
          </mxGeometry>
        </mxCell>
        <mxCell id="6OGqVxHeLhcwMYVrImcY-38" value="Q" style="edgeLabel;html=1;align=center;verticalAlign=middle;resizable=0;points=[];" parent="6OGqVxHeLhcwMYVrImcY-37" vertex="1" connectable="0">
          <mxGeometry x="-0.114" relative="1" as="geometry">
            <mxPoint x="16" y="-10" as="offset" />
          </mxGeometry>
        </mxCell>
        <mxCell id="6OGqVxHeLhcwMYVrImcY-39" value="" style="endArrow=none;html=1;rounded=0;endFill=0;startArrow=open;startFill=0;dashed=1;" parent="1" edge="1">
          <mxGeometry width="50" height="50" relative="1" as="geometry">
            <mxPoint x="1838" y="775" as="sourcePoint" />
            <mxPoint x="2268" y="775" as="targetPoint" />
          </mxGeometry>
        </mxCell>
        <mxCell id="6OGqVxHeLhcwMYVrImcY-40" value="H" style="edgeLabel;html=1;align=center;verticalAlign=middle;resizable=0;points=[];" parent="6OGqVxHeLhcwMYVrImcY-39" vertex="1" connectable="0">
          <mxGeometry x="-0.114" relative="1" as="geometry">
            <mxPoint x="16" y="-10" as="offset" />
          </mxGeometry>
        </mxCell>
        <mxCell id="6OGqVxHeLhcwMYVrImcY-41" value="" style="endArrow=none;html=1;rounded=0;endFill=0;startArrow=open;startFill=0;dashed=1;" parent="1" edge="1">
          <mxGeometry width="50" height="50" relative="1" as="geometry">
            <mxPoint x="1838" y="935" as="sourcePoint" />
            <mxPoint x="2268" y="935" as="targetPoint" />
          </mxGeometry>
        </mxCell>
        <mxCell id="6OGqVxHeLhcwMYVrImcY-42" value="ẑ" style="edgeLabel;html=1;align=center;verticalAlign=middle;resizable=0;points=[];" parent="6OGqVxHeLhcwMYVrImcY-41" vertex="1" connectable="0">
          <mxGeometry x="-0.114" relative="1" as="geometry">
            <mxPoint x="16" y="-10" as="offset" />
          </mxGeometry>
        </mxCell>
        <mxCell id="6OGqVxHeLhcwMYVrImcY-43" value="loop" style="shape=umlFrame;whiteSpace=wrap;html=1;pointerEvents=0;" parent="1" vertex="1">
          <mxGeometry x="1758" y="650" width="560" height="335" as="geometry" />
        </mxCell>
        <mxCell id="6OGqVxHeLhcwMYVrImcY-45" value="" style="endArrow=none;dashed=1;html=1;dashPattern=1 3;strokeWidth=2;rounded=0;" parent="1" source="6OGqVxHeLhcwMYVrImcY-44" target="6OGqVxHeLhcwMYVrImcY-26" edge="1">
          <mxGeometry width="50" height="50" relative="1" as="geometry">
            <mxPoint x="1833" y="624" as="sourcePoint" />
            <mxPoint x="1833" y="590" as="targetPoint" />
          </mxGeometry>
        </mxCell>
        <mxCell id="6OGqVxHeLhcwMYVrImcY-46" value="ObservationModel" style="html=1;whiteSpace=wrap;" parent="1" vertex="1">
          <mxGeometry x="2218" y="530" width="110" height="50" as="geometry" />
        </mxCell>
        <mxCell id="6OGqVxHeLhcwMYVrImcY-47" value="" style="endArrow=none;dashed=1;html=1;dashPattern=1 3;strokeWidth=2;rounded=0;exitX=0.5;exitY=0.094;exitDx=0;exitDy=0;exitPerimeter=0;entryX=0.5;entryY=1;entryDx=0;entryDy=0;" parent="1" source="6OGqVxHeLhcwMYVrImcY-29" target="6OGqVxHeLhcwMYVrImcY-46" edge="1">
          <mxGeometry width="50" height="50" relative="1" as="geometry">
            <mxPoint x="2273" y="1040" as="sourcePoint" />
            <mxPoint x="2273" y="600" as="targetPoint" />
          </mxGeometry>
        </mxCell>
        <mxCell id="6OGqVxHeLhcwMYVrImcY-29" value="" style="html=1;points=[[0,0,0,0,5],[0,1,0,0,-5],[1,0,0,0,5],[1,1,0,0,-5]];perimeter=orthogonalPerimeter;outlineConnect=0;targetShapes=umlLifeline;portConstraint=eastwest;newEdgeStyle={&quot;curved&quot;:0,&quot;rounded&quot;:0};" parent="1" vertex="1">
          <mxGeometry x="2268" y="730" width="10" height="235" as="geometry" />
        </mxCell>
        <mxCell id="6OGqVxHeLhcwMYVrImcY-44" value="EKF" style="html=1;whiteSpace=wrap;" parent="1" vertex="1">
          <mxGeometry x="1778" y="530" width="110" height="50" as="geometry" />
        </mxCell>
        <mxCell id="6OGqVxHeLhcwMYVrImcY-51" value="" style="endArrow=block;html=1;rounded=0;endFill=1;" parent="1" edge="1">
          <mxGeometry width="50" height="50" relative="1" as="geometry">
            <mxPoint x="1660" y="640" as="sourcePoint" />
            <mxPoint x="1828" y="640" as="targetPoint" />
          </mxGeometry>
        </mxCell>
        <mxCell id="6OGqVxHeLhcwMYVrImcY-52" value="correction_step()" style="edgeLabel;html=1;align=center;verticalAlign=middle;resizable=0;points=[];" parent="6OGqVxHeLhcwMYVrImcY-51" vertex="1" connectable="0">
          <mxGeometry x="-0.114" relative="1" as="geometry">
            <mxPoint x="6" y="-10" as="offset" />
          </mxGeometry>
        </mxCell>
        <mxCell id="6OGqVxHeLhcwMYVrImcY-53" value="sd correction_step" style="shape=umlFrame;whiteSpace=wrap;html=1;pointerEvents=0;width=132;height=30;" parent="1" vertex="1">
          <mxGeometry x="1660" y="490" width="700" height="560" as="geometry" />
        </mxCell>
        <mxCell id="6OGqVxHeLhcwMYVrImcY-49" value="ref" style="shape=umlFrame;whiteSpace=wrap;html=1;pointerEvents=0;" parent="1" vertex="1">
          <mxGeometry x="920" y="650" width="555" height="100" as="geometry" />
        </mxCell>
        <mxCell id="6OGqVxHeLhcwMYVrImcY-54" value="" style="endArrow=none;dashed=1;html=1;dashPattern=1 3;strokeWidth=2;rounded=0;" parent="1" edge="1">
          <mxGeometry width="50" height="50" relative="1" as="geometry">
            <mxPoint x="1385" y="920" as="sourcePoint" />
            <mxPoint x="1385" y="730" as="targetPoint" />
          </mxGeometry>
        </mxCell>
        <mxCell id="6OGqVxHeLhcwMYVrImcY-55" value="" style="endArrow=none;html=1;rounded=0;endFill=0;startArrow=open;startFill=0;dashed=1;entryX=-0.001;entryY=0.811;entryDx=0;entryDy=0;entryPerimeter=0;" parent="1" target="6OGqVxHeLhcwMYVrImcY-133" edge="1">
          <mxGeometry width="50" height="50" relative="1" as="geometry">
            <mxPoint x="700" y="380" as="sourcePoint" />
            <mxPoint x="940" y="380" as="targetPoint" />
          </mxGeometry>
        </mxCell>
        <mxCell id="6OGqVxHeLhcwMYVrImcY-56" value="return" style="edgeLabel;html=1;align=center;verticalAlign=middle;resizable=0;points=[];" parent="6OGqVxHeLhcwMYVrImcY-55" vertex="1" connectable="0">
          <mxGeometry x="-0.114" relative="1" as="geometry">
            <mxPoint x="16" y="-10" as="offset" />
          </mxGeometry>
        </mxCell>
        <mxCell id="6OGqVxHeLhcwMYVrImcY-57" value="" style="endArrow=none;html=1;rounded=0;endFill=0;startArrow=open;startFill=0;dashed=1;entryX=0.002;entryY=0.753;entryDx=0;entryDy=0;entryPerimeter=0;" parent="1" target="6OGqVxHeLhcwMYVrImcY-49" edge="1">
          <mxGeometry width="50" height="50" relative="1" as="geometry">
            <mxPoint x="700" y="725.0799999999999" as="sourcePoint" />
            <mxPoint x="940" y="725.0799999999999" as="targetPoint" />
          </mxGeometry>
        </mxCell>
        <mxCell id="6OGqVxHeLhcwMYVrImcY-58" value="return" style="edgeLabel;html=1;align=center;verticalAlign=middle;resizable=0;points=[];" parent="6OGqVxHeLhcwMYVrImcY-57" vertex="1" connectable="0">
          <mxGeometry x="-0.114" relative="1" as="geometry">
            <mxPoint x="16" y="-10" as="offset" />
          </mxGeometry>
        </mxCell>
        <mxCell id="6OGqVxHeLhcwMYVrImcY-59" value="" style="endArrow=none;dashed=1;html=1;dashPattern=1 3;strokeWidth=2;rounded=0;entryX=0.5;entryY=1;entryDx=0;entryDy=0;" parent="1" edge="1">
          <mxGeometry width="50" height="50" relative="1" as="geometry">
            <mxPoint x="945" y="920" as="sourcePoint" />
            <mxPoint x="944.5800000000002" y="820" as="targetPoint" />
          </mxGeometry>
        </mxCell>
        <mxCell id="6OGqVxHeLhcwMYVrImcY-61" value="" style="endArrow=block;html=1;rounded=0;endFill=1;" parent="1" edge="1">
          <mxGeometry width="50" height="50" relative="1" as="geometry">
            <mxPoint x="700" y="770" as="sourcePoint" />
            <mxPoint x="940" y="770" as="targetPoint" />
          </mxGeometry>
        </mxCell>
        <mxCell id="6OGqVxHeLhcwMYVrImcY-62" value="update()" style="edgeLabel;html=1;align=center;verticalAlign=middle;resizable=0;points=[];" parent="6OGqVxHeLhcwMYVrImcY-61" vertex="1" connectable="0">
          <mxGeometry x="-0.114" relative="1" as="geometry">
            <mxPoint x="16" y="-10" as="offset" />
          </mxGeometry>
        </mxCell>
        <mxCell id="6OGqVxHeLhcwMYVrImcY-63" value="" style="html=1;points=[[0,0,0,0,5],[0,1,0,0,-5],[1,0,0,0,5],[1,1,0,0,-5]];perimeter=orthogonalPerimeter;outlineConnect=0;targetShapes=umlLifeline;portConstraint=eastwest;newEdgeStyle={&quot;curved&quot;:0,&quot;rounded&quot;:0};" parent="1" vertex="1">
          <mxGeometry x="940" y="760" width="10" height="50" as="geometry" />
        </mxCell>
        <mxCell id="6OGqVxHeLhcwMYVrImcY-64" value="" style="endArrow=none;html=1;rounded=0;endFill=0;startArrow=open;startFill=0;dashed=1;" parent="1" edge="1">
          <mxGeometry width="50" height="50" relative="1" as="geometry">
            <mxPoint x="700" y="800" as="sourcePoint" />
            <mxPoint x="940" y="800" as="targetPoint" />
          </mxGeometry>
        </mxCell>
        <mxCell id="6OGqVxHeLhcwMYVrImcY-65" value="track_map, vehicle_state" style="edgeLabel;html=1;align=center;verticalAlign=middle;resizable=0;points=[];" parent="6OGqVxHeLhcwMYVrImcY-64" vertex="1" connectable="0">
          <mxGeometry x="-0.114" relative="1" as="geometry">
            <mxPoint x="16" y="-10" as="offset" />
          </mxGeometry>
        </mxCell>
        <mxCell id="6OGqVxHeLhcwMYVrImcY-66" value="" style="endArrow=none;html=1;rounded=0;endFill=0;startArrow=open;startFill=0;dashed=1;" parent="1" edge="1">
          <mxGeometry width="50" height="50" relative="1" as="geometry">
            <mxPoint x="40" y="860" as="sourcePoint" />
            <mxPoint x="690" y="820" as="targetPoint" />
          </mxGeometry>
        </mxCell>
        <mxCell id="6OGqVxHeLhcwMYVrImcY-67" value="publish_localization()" style="edgeLabel;html=1;align=center;verticalAlign=middle;resizable=0;points=[];" parent="6OGqVxHeLhcwMYVrImcY-66" vertex="1" connectable="0">
          <mxGeometry x="-0.114" relative="1" as="geometry">
            <mxPoint x="16" y="-22" as="offset" />
          </mxGeometry>
        </mxCell>
        <mxCell id="6OGqVxHeLhcwMYVrImcY-68" value="" style="endArrow=none;html=1;rounded=0;endFill=0;startArrow=open;startFill=0;dashed=1;" parent="1" edge="1">
          <mxGeometry width="50" height="50" relative="1" as="geometry">
            <mxPoint x="40" y="887" as="sourcePoint" />
            <mxPoint x="690" y="847" as="targetPoint" />
          </mxGeometry>
        </mxCell>
        <mxCell id="6OGqVxHeLhcwMYVrImcY-69" value="publish_map()" style="edgeLabel;html=1;align=center;verticalAlign=middle;resizable=0;points=[];" parent="6OGqVxHeLhcwMYVrImcY-68" vertex="1" connectable="0">
          <mxGeometry x="-0.114" relative="1" as="geometry">
            <mxPoint x="16" y="-15" as="offset" />
          </mxGeometry>
        </mxCell>
        <mxCell id="6OGqVxHeLhcwMYVrImcY-70" value="_perception_subscription_callback()" style="html=1;align=left;spacingLeft=2;endArrow=block;rounded=0;edgeStyle=orthogonalEdgeStyle;curved=0;rounded=0;" parent="1" edge="1">
          <mxGeometry relative="1" as="geometry">
            <mxPoint x="700" y="630" as="sourcePoint" />
            <Array as="points">
              <mxPoint x="730" y="630" />
              <mxPoint x="730" y="660" />
            </Array>
            <mxPoint x="700" y="660" as="targetPoint" />
            <mxPoint as="offset" />
          </mxGeometry>
        </mxCell>
        <mxCell id="6OGqVxHeLhcwMYVrImcY-107" value="" style="html=1;points=[[0,0,0,0,5],[0,1,0,0,-5],[1,0,0,0,5],[1,1,0,0,-5]];perimeter=orthogonalPerimeter;outlineConnect=0;targetShapes=umlLifeline;portConstraint=eastwest;newEdgeStyle={&quot;curved&quot;:0,&quot;rounded&quot;:0};" parent="1" vertex="1">
          <mxGeometry x="1948" y="180" width="10" height="200" as="geometry" />
        </mxCell>
        <mxCell id="6OGqVxHeLhcwMYVrImcY-108" value="" style="endArrow=block;html=1;rounded=0;endFill=1;" parent="1" edge="1">
          <mxGeometry width="50" height="50" relative="1" as="geometry">
            <mxPoint x="1708" y="190" as="sourcePoint" />
            <mxPoint x="1948" y="190" as="targetPoint" />
          </mxGeometry>
        </mxCell>
        <mxCell id="6OGqVxHeLhcwMYVrImcY-109" value="prediction_step()" style="edgeLabel;html=1;align=center;verticalAlign=middle;resizable=0;points=[];" parent="6OGqVxHeLhcwMYVrImcY-108" vertex="1" connectable="0">
          <mxGeometry x="-0.114" relative="1" as="geometry">
            <mxPoint x="16" y="-10" as="offset" />
          </mxGeometry>
        </mxCell>
        <mxCell id="6OGqVxHeLhcwMYVrImcY-110" value="" style="html=1;points=[[0,0,0,0,5],[0,1,0,0,-5],[1,0,0,0,5],[1,1,0,0,-5]];perimeter=orthogonalPerimeter;outlineConnect=0;targetShapes=umlLifeline;portConstraint=eastwest;newEdgeStyle={&quot;curved&quot;:0,&quot;rounded&quot;:0};" parent="1" vertex="1">
          <mxGeometry x="2198" y="200" width="10" height="170" as="geometry" />
        </mxCell>
        <mxCell id="6OGqVxHeLhcwMYVrImcY-111" value="" style="endArrow=block;html=1;rounded=0;endFill=1;" parent="1" edge="1">
          <mxGeometry width="50" height="50" relative="1" as="geometry">
            <mxPoint x="1958" y="210" as="sourcePoint" />
            <mxPoint x="2198" y="210" as="targetPoint" />
          </mxGeometry>
        </mxCell>
        <mxCell id="6OGqVxHeLhcwMYVrImcY-112" value="predict_expected_state()" style="edgeLabel;html=1;align=center;verticalAlign=middle;resizable=0;points=[];" parent="6OGqVxHeLhcwMYVrImcY-111" vertex="1" connectable="0">
          <mxGeometry x="-0.114" relative="1" as="geometry">
            <mxPoint x="16" y="-10" as="offset" />
          </mxGeometry>
        </mxCell>
        <mxCell id="6OGqVxHeLhcwMYVrImcY-113" value="" style="endArrow=block;html=1;rounded=0;endFill=1;" parent="1" edge="1">
          <mxGeometry width="50" height="50" relative="1" as="geometry">
            <mxPoint x="1958" y="270" as="sourcePoint" />
            <mxPoint x="2198" y="270" as="targetPoint" />
          </mxGeometry>
        </mxCell>
        <mxCell id="6OGqVxHeLhcwMYVrImcY-114" value="get_motion_to_state_matrix()" style="edgeLabel;html=1;align=center;verticalAlign=middle;resizable=0;points=[];" parent="6OGqVxHeLhcwMYVrImcY-113" vertex="1" connectable="0">
          <mxGeometry x="-0.114" relative="1" as="geometry">
            <mxPoint x="16" y="-10" as="offset" />
          </mxGeometry>
        </mxCell>
        <mxCell id="6OGqVxHeLhcwMYVrImcY-115" value="" style="endArrow=block;html=1;rounded=0;endFill=1;" parent="1" edge="1">
          <mxGeometry width="50" height="50" relative="1" as="geometry">
            <mxPoint x="1958" y="330" as="sourcePoint" />
            <mxPoint x="2198" y="330" as="targetPoint" />
          </mxGeometry>
        </mxCell>
        <mxCell id="6OGqVxHeLhcwMYVrImcY-116" value="get_process_noise_covariance_matrix()" style="edgeLabel;html=1;align=center;verticalAlign=middle;resizable=0;points=[];" parent="6OGqVxHeLhcwMYVrImcY-115" vertex="1" connectable="0">
          <mxGeometry x="-0.114" relative="1" as="geometry">
            <mxPoint x="16" y="-10" as="offset" />
          </mxGeometry>
        </mxCell>
        <mxCell id="6OGqVxHeLhcwMYVrImcY-117" value="" style="endArrow=none;html=1;rounded=0;endFill=0;startArrow=open;startFill=0;dashed=1;" parent="1" edge="1">
          <mxGeometry width="50" height="50" relative="1" as="geometry">
            <mxPoint x="1958" y="240" as="sourcePoint" />
            <mxPoint x="2198" y="240" as="targetPoint" />
          </mxGeometry>
        </mxCell>
        <mxCell id="6OGqVxHeLhcwMYVrImcY-118" value="tempX (predicted X)" style="edgeLabel;html=1;align=center;verticalAlign=middle;resizable=0;points=[];" parent="6OGqVxHeLhcwMYVrImcY-117" vertex="1" connectable="0">
          <mxGeometry x="-0.114" relative="1" as="geometry">
            <mxPoint x="16" y="-10" as="offset" />
          </mxGeometry>
        </mxCell>
        <mxCell id="6OGqVxHeLhcwMYVrImcY-119" value="" style="endArrow=none;html=1;rounded=0;endFill=0;startArrow=open;startFill=0;dashed=1;" parent="1" edge="1">
          <mxGeometry width="50" height="50" relative="1" as="geometry">
            <mxPoint x="1958" y="360" as="sourcePoint" />
            <mxPoint x="2198" y="360" as="targetPoint" />
          </mxGeometry>
        </mxCell>
        <mxCell id="6OGqVxHeLhcwMYVrImcY-120" value="R" style="edgeLabel;html=1;align=center;verticalAlign=middle;resizable=0;points=[];" parent="6OGqVxHeLhcwMYVrImcY-119" vertex="1" connectable="0">
          <mxGeometry x="-0.114" relative="1" as="geometry">
            <mxPoint x="16" y="-10" as="offset" />
          </mxGeometry>
        </mxCell>
        <mxCell id="6OGqVxHeLhcwMYVrImcY-121" value="" style="endArrow=none;html=1;rounded=0;endFill=0;startArrow=open;startFill=0;dashed=1;" parent="1" edge="1">
          <mxGeometry width="50" height="50" relative="1" as="geometry">
            <mxPoint x="1958" y="300" as="sourcePoint" />
            <mxPoint x="2198" y="300" as="targetPoint" />
          </mxGeometry>
        </mxCell>
        <mxCell id="6OGqVxHeLhcwMYVrImcY-122" value="G" style="edgeLabel;html=1;align=center;verticalAlign=middle;resizable=0;points=[];" parent="6OGqVxHeLhcwMYVrImcY-121" vertex="1" connectable="0">
          <mxGeometry x="-0.114" relative="1" as="geometry">
            <mxPoint x="16" y="-10" as="offset" />
          </mxGeometry>
        </mxCell>
        <mxCell id="6OGqVxHeLhcwMYVrImcY-123" value="" style="endArrow=none;html=1;rounded=0;endFill=0;startArrow=open;startFill=0;dashed=1;" parent="1" edge="1">
          <mxGeometry width="50" height="50" relative="1" as="geometry">
            <mxPoint x="1708" y="370" as="sourcePoint" />
            <mxPoint x="1948" y="370" as="targetPoint" />
          </mxGeometry>
        </mxCell>
        <mxCell id="6OGqVxHeLhcwMYVrImcY-124" value="return" style="edgeLabel;html=1;align=center;verticalAlign=middle;resizable=0;points=[];" parent="6OGqVxHeLhcwMYVrImcY-123" vertex="1" connectable="0">
          <mxGeometry x="-0.114" relative="1" as="geometry">
            <mxPoint x="16" y="-10" as="offset" />
          </mxGeometry>
        </mxCell>
        <mxCell id="6OGqVxHeLhcwMYVrImcY-125" value="" style="endArrow=none;html=1;rounded=0;endFill=0;startArrow=open;startFill=0;dashed=1;" parent="1" edge="1">
          <mxGeometry width="50" height="50" relative="1" as="geometry">
            <mxPoint x="1660" y="1000" as="sourcePoint" />
            <mxPoint x="1828" y="1000" as="targetPoint" />
          </mxGeometry>
        </mxCell>
        <mxCell id="6OGqVxHeLhcwMYVrImcY-126" value="return" style="edgeLabel;html=1;align=center;verticalAlign=middle;resizable=0;points=[];" parent="6OGqVxHeLhcwMYVrImcY-125" vertex="1" connectable="0">
          <mxGeometry x="-0.114" relative="1" as="geometry">
            <mxPoint x="16" y="-10" as="offset" />
          </mxGeometry>
        </mxCell>
        <mxCell id="6OGqVxHeLhcwMYVrImcY-127" value="sd prediction_step" style="shape=umlFrame;whiteSpace=wrap;html=1;pointerEvents=0;width=132;height=30;" parent="1" vertex="1">
          <mxGeometry x="1706" y="50" width="562" height="350" as="geometry" />
        </mxCell>
        <mxCell id="6OGqVxHeLhcwMYVrImcY-128" value="discovery()" style="html=1;align=left;spacingLeft=2;endArrow=block;rounded=0;edgeStyle=orthogonalEdgeStyle;curved=0;rounded=0;" parent="1" edge="1">
          <mxGeometry relative="1" as="geometry">
            <mxPoint x="1838" y="680" as="sourcePoint" />
            <Array as="points">
              <mxPoint x="1868" y="680" />
              <mxPoint x="1868" y="710" />
            </Array>
            <mxPoint x="1838" y="710" as="targetPoint" />
          </mxGeometry>
        </mxCell>
        <mxCell id="6OGqVxHeLhcwMYVrImcY-129" value="EKF" style="html=1;whiteSpace=wrap;" parent="1" vertex="1">
          <mxGeometry x="1898" y="80" width="110" height="50" as="geometry" />
        </mxCell>
        <mxCell id="6OGqVxHeLhcwMYVrImcY-130" value="" style="endArrow=none;dashed=1;html=1;dashPattern=1 3;strokeWidth=2;rounded=0;entryX=0.5;entryY=1;entryDx=0;entryDy=0;" parent="1" edge="1">
          <mxGeometry width="50" height="50" relative="1" as="geometry">
            <mxPoint x="1953" y="180" as="sourcePoint" />
            <mxPoint x="1952.68" y="130" as="targetPoint" />
          </mxGeometry>
        </mxCell>
        <mxCell id="6OGqVxHeLhcwMYVrImcY-131" value="MotionModel" style="html=1;whiteSpace=wrap;" parent="1" vertex="1">
          <mxGeometry x="2148" y="80" width="110" height="50" as="geometry" />
        </mxCell>
        <mxCell id="6OGqVxHeLhcwMYVrImcY-132" value="" style="endArrow=none;dashed=1;html=1;dashPattern=1 3;strokeWidth=2;rounded=0;entryX=0.5;entryY=1;entryDx=0;entryDy=0;" parent="1" source="6OGqVxHeLhcwMYVrImcY-110" edge="1">
          <mxGeometry width="50" height="50" relative="1" as="geometry">
            <mxPoint x="2203" y="300" as="sourcePoint" />
            <mxPoint x="2203" y="130" as="targetPoint" />
          </mxGeometry>
        </mxCell>
        <mxCell id="6OGqVxHeLhcwMYVrImcY-133" value="ref" style="shape=umlFrame;whiteSpace=wrap;html=1;pointerEvents=0;" parent="1" vertex="1">
          <mxGeometry x="910" y="300" width="300" height="100" as="geometry" />
        </mxCell>
        <mxCell id="6OGqVxHeLhcwMYVrImcY-134" value="&lt;font style=&quot;font-size: 18px;&quot;&gt;[sd prediction_step]&lt;/font&gt;" style="edgeLabel;html=1;align=center;verticalAlign=middle;resizable=0;points=[];" parent="1" vertex="1" connectable="0">
          <mxGeometry x="1090" y="350.0031034482758" as="geometry" />
        </mxCell>
        <mxCell id="6OGqVxHeLhcwMYVrImcY-135" value="ROS2 Node" style="swimlane;fontStyle=1;align=center;verticalAlign=top;childLayout=stackLayout;horizontal=1;startSize=26;horizontalStack=0;resizeParent=1;resizeParentMax=0;resizeLast=0;collapsible=1;marginBottom=0;whiteSpace=wrap;html=1;" parent="1" vertex="1">
          <mxGeometry x="3500" y="100" width="160" height="34" as="geometry" />
        </mxCell>
        <mxCell id="6OGqVxHeLhcwMYVrImcY-137" value="" style="line;strokeWidth=1;fillColor=none;align=left;verticalAlign=middle;spacingTop=-1;spacingLeft=3;spacingRight=3;rotatable=0;labelPosition=right;points=[];portConstraint=eastwest;strokeColor=inherit;" parent="6OGqVxHeLhcwMYVrImcY-135" vertex="1">
          <mxGeometry y="26" width="160" height="8" as="geometry" />
        </mxCell>
        <mxCell id="6OGqVxHeLhcwMYVrImcY-143" style="edgeStyle=orthogonalEdgeStyle;rounded=0;orthogonalLoop=1;jettySize=auto;html=1;entryX=0.5;entryY=1;entryDx=0;entryDy=0;endArrow=block;endFill=0;strokeWidth=1;jumpSize=6;" parent="1" source="6OGqVxHeLhcwMYVrImcY-139" target="6OGqVxHeLhcwMYVrImcY-135" edge="1">
          <mxGeometry relative="1" as="geometry" />
        </mxCell>
        <mxCell id="mWjgu7GkyDxPOXFMDe1E-27" style="edgeStyle=orthogonalEdgeStyle;rounded=0;orthogonalLoop=1;jettySize=auto;html=1;endArrow=open;endFill=0;" parent="1" source="6OGqVxHeLhcwMYVrImcY-139" target="6OGqVxHeLhcwMYVrImcY-176" edge="1">
          <mxGeometry relative="1" as="geometry" />
        </mxCell>
        <mxCell id="mWjgu7GkyDxPOXFMDe1E-28" value="2" style="edgeLabel;html=1;align=center;verticalAlign=middle;resizable=0;points=[];" parent="mWjgu7GkyDxPOXFMDe1E-27" vertex="1" connectable="0">
          <mxGeometry x="0.6667" relative="1" as="geometry">
            <mxPoint x="42" y="21" as="offset" />
          </mxGeometry>
        </mxCell>
        <mxCell id="mWjgu7GkyDxPOXFMDe1E-29" value="perception_map, &lt;br&gt;track_map" style="edgeLabel;html=1;align=center;verticalAlign=middle;resizable=0;points=[];" parent="mWjgu7GkyDxPOXFMDe1E-27" vertex="1" connectable="0">
          <mxGeometry x="0.0705" y="-3" relative="1" as="geometry">
            <mxPoint x="17" y="-94" as="offset" />
          </mxGeometry>
        </mxCell>
        <mxCell id="mWjgu7GkyDxPOXFMDe1E-33" style="edgeStyle=orthogonalEdgeStyle;rounded=0;orthogonalLoop=1;jettySize=auto;html=1;endArrow=open;endFill=0;" parent="1" source="6OGqVxHeLhcwMYVrImcY-139" target="6OGqVxHeLhcwMYVrImcY-164" edge="1">
          <mxGeometry relative="1" as="geometry" />
        </mxCell>
        <mxCell id="mWjgu7GkyDxPOXFMDe1E-34" value="vehicle_state" style="edgeLabel;html=1;align=center;verticalAlign=middle;resizable=0;points=[];" parent="mWjgu7GkyDxPOXFMDe1E-33" vertex="1" connectable="0">
          <mxGeometry x="0.8143" y="2" relative="1" as="geometry">
            <mxPoint x="14" y="-15" as="offset" />
          </mxGeometry>
        </mxCell>
        <mxCell id="6OGqVxHeLhcwMYVrImcY-139" value="LMNode" style="swimlane;fontStyle=1;align=center;verticalAlign=top;childLayout=stackLayout;horizontal=1;startSize=26;horizontalStack=0;resizeParent=1;resizeParentMax=0;resizeLast=0;collapsible=1;marginBottom=0;whiteSpace=wrap;html=1;" parent="1" vertex="1">
          <mxGeometry x="3410" y="170" width="340" height="422" as="geometry" />
        </mxCell>
        <mxCell id="6OGqVxHeLhcwMYVrImcY-140" value="- mission: enum&amp;lt;Mission&amp;gt;" style="text;strokeColor=none;fillColor=none;align=left;verticalAlign=top;spacingLeft=4;spacingRight=4;overflow=hidden;rotatable=0;points=[[0,0.5],[1,0.5]];portConstraint=eastwest;whiteSpace=wrap;html=1;" parent="6OGqVxHeLhcwMYVrImcY-139" vertex="1">
          <mxGeometry y="26" width="340" height="26" as="geometry" />
        </mxCell>
        <mxCell id="6OGqVxHeLhcwMYVrImcY-195" value="- use_odometry: bool" style="text;strokeColor=none;fillColor=none;align=left;verticalAlign=top;spacingLeft=4;spacingRight=4;overflow=hidden;rotatable=0;points=[[0,0.5],[1,0.5]];portConstraint=eastwest;whiteSpace=wrap;html=1;" parent="6OGqVxHeLhcwMYVrImcY-139" vertex="1">
          <mxGeometry y="52" width="340" height="26" as="geometry" />
        </mxCell>
        <mxCell id="6OGqVxHeLhcwMYVrImcY-141" value="" style="line;strokeWidth=1;fillColor=none;align=left;verticalAlign=middle;spacingTop=-1;spacingLeft=3;spacingRight=3;rotatable=0;labelPosition=right;points=[];portConstraint=eastwest;strokeColor=inherit;" parent="6OGqVxHeLhcwMYVrImcY-139" vertex="1">
          <mxGeometry y="78" width="340" height="8" as="geometry" />
        </mxCell>
        <mxCell id="6OGqVxHeLhcwMYVrImcY-142" value="- _perception_subscription_callback(ConeArray): void" style="text;strokeColor=none;fillColor=none;align=left;verticalAlign=top;spacingLeft=4;spacingRight=4;overflow=hidden;rotatable=0;points=[[0,0.5],[1,0.5]];portConstraint=eastwest;whiteSpace=wrap;html=1;" parent="6OGqVxHeLhcwMYVrImcY-139" vertex="1">
          <mxGeometry y="86" width="340" height="26" as="geometry" />
        </mxCell>
        <mxCell id="6OGqVxHeLhcwMYVrImcY-196" value="- _imu_subscription_callback(rotational_velocity, acceleration_x, acceleration_y : double): void" style="text;strokeColor=none;fillColor=none;align=left;verticalAlign=top;spacingLeft=4;spacingRight=4;overflow=hidden;rotatable=0;points=[[0,0.5],[1,0.5]];portConstraint=eastwest;whiteSpace=wrap;html=1;" parent="6OGqVxHeLhcwMYVrImcY-139" vertex="1">
          <mxGeometry y="112" width="340" height="38" as="geometry" />
        </mxCell>
        <mxCell id="6OGqVxHeLhcwMYVrImcY-197" value="- _wheel_speeds_subscription_callback(wheel_speeds x4, steering_angle : double): void" style="text;strokeColor=none;fillColor=none;align=left;verticalAlign=top;spacingLeft=4;spacingRight=4;overflow=hidden;rotatable=0;points=[[0,0.5],[1,0.5]];portConstraint=eastwest;whiteSpace=wrap;html=1;" parent="6OGqVxHeLhcwMYVrImcY-139" vertex="1">
          <mxGeometry y="150" width="340" height="42" as="geometry" />
        </mxCell>
        <mxCell id="6OGqVxHeLhcwMYVrImcY-198" value="- _update_and_publish(): void" style="text;strokeColor=none;fillColor=none;align=left;verticalAlign=top;spacingLeft=4;spacingRight=4;overflow=hidden;rotatable=0;points=[[0,0.5],[1,0.5]];portConstraint=eastwest;whiteSpace=wrap;html=1;" parent="6OGqVxHeLhcwMYVrImcY-139" vertex="1">
          <mxGeometry y="192" width="340" height="26" as="geometry" />
        </mxCell>
        <mxCell id="6OGqVxHeLhcwMYVrImcY-199" value="- _publish_localization(): void" style="text;strokeColor=none;fillColor=none;align=left;verticalAlign=top;spacingLeft=4;spacingRight=4;overflow=hidden;rotatable=0;points=[[0,0.5],[1,0.5]];portConstraint=eastwest;whiteSpace=wrap;html=1;" parent="6OGqVxHeLhcwMYVrImcY-139" vertex="1">
          <mxGeometry y="218" width="340" height="26" as="geometry" />
        </mxCell>
        <mxCell id="6OGqVxHeLhcwMYVrImcY-200" value="- _publish_map(): void" style="text;strokeColor=none;fillColor=none;align=left;verticalAlign=top;spacingLeft=4;spacingRight=4;overflow=hidden;rotatable=0;points=[[0,0.5],[1,0.5]];portConstraint=eastwest;whiteSpace=wrap;html=1;" parent="6OGqVxHeLhcwMYVrImcY-139" vertex="1">
          <mxGeometry y="244" width="340" height="26" as="geometry" />
        </mxCell>
        <mxCell id="6OGqVxHeLhcwMYVrImcY-202" value="- _ekf_step(): void" style="text;strokeColor=none;fillColor=none;align=left;verticalAlign=top;spacingLeft=4;spacingRight=4;overflow=hidden;rotatable=0;points=[[0,0.5],[1,0.5]];portConstraint=eastwest;whiteSpace=wrap;html=1;" parent="6OGqVxHeLhcwMYVrImcY-139" vertex="1">
          <mxGeometry y="270" width="340" height="26" as="geometry" />
        </mxCell>
        <mxCell id="6OGqVxHeLhcwMYVrImcY-203" value="- static odometry_to_velocities_transform(double x5): MotionUpdate" style="text;strokeColor=none;fillColor=none;align=left;verticalAlign=top;spacingLeft=4;spacingRight=4;overflow=hidden;rotatable=0;points=[[0,0.5],[1,0.5]];portConstraint=eastwest;whiteSpace=wrap;html=1;" parent="6OGqVxHeLhcwMYVrImcY-139" vertex="1">
          <mxGeometry y="296" width="340" height="42" as="geometry" />
        </mxCell>
        <mxCell id="6OGqVxHeLhcwMYVrImcY-204" value="+ set_mission(Mission): void" style="text;strokeColor=none;fillColor=none;align=left;verticalAlign=top;spacingLeft=4;spacingRight=4;overflow=hidden;rotatable=0;points=[[0,0.5],[1,0.5]];portConstraint=eastwest;whiteSpace=wrap;html=1;" parent="6OGqVxHeLhcwMYVrImcY-139" vertex="1">
          <mxGeometry y="338" width="340" height="26" as="geometry" />
        </mxCell>
        <mxCell id="mWjgu7GkyDxPOXFMDe1E-1" value="+ LMNode(ExtendedKalmanFilter, perception_map, track_map : ConeMap, MotionUpdate, VehicleState, use_odometry :&amp;nbsp; bool): void" style="text;strokeColor=none;fillColor=none;align=left;verticalAlign=top;spacingLeft=4;spacingRight=4;overflow=hidden;rotatable=0;points=[[0,0.5],[1,0.5]];portConstraint=eastwest;whiteSpace=wrap;html=1;" parent="6OGqVxHeLhcwMYVrImcY-139" vertex="1">
          <mxGeometry y="364" width="340" height="58" as="geometry" />
        </mxCell>
        <mxCell id="mWjgu7GkyDxPOXFMDe1E-25" style="edgeStyle=orthogonalEdgeStyle;rounded=0;orthogonalLoop=1;jettySize=auto;html=1;endArrow=open;endFill=0;" parent="1" source="6OGqVxHeLhcwMYVrImcY-144" target="6OGqVxHeLhcwMYVrImcY-148" edge="1">
          <mxGeometry relative="1" as="geometry" />
        </mxCell>
        <mxCell id="mWjgu7GkyDxPOXFMDe1E-26" style="edgeStyle=orthogonalEdgeStyle;rounded=0;orthogonalLoop=1;jettySize=auto;html=1;endArrow=open;endFill=0;" parent="1" source="6OGqVxHeLhcwMYVrImcY-144" target="6OGqVxHeLhcwMYVrImcY-160" edge="1">
          <mxGeometry relative="1" as="geometry" />
        </mxCell>
        <mxCell id="mWjgu7GkyDxPOXFMDe1E-30" style="edgeStyle=orthogonalEdgeStyle;rounded=0;orthogonalLoop=1;jettySize=auto;html=1;endArrow=open;endFill=0;" parent="1" source="6OGqVxHeLhcwMYVrImcY-144" target="6OGqVxHeLhcwMYVrImcY-172" edge="1">
          <mxGeometry relative="1" as="geometry">
            <Array as="points">
              <mxPoint x="3350" y="834" />
              <mxPoint x="3350" y="259" />
            </Array>
          </mxGeometry>
        </mxCell>
        <mxCell id="mWjgu7GkyDxPOXFMDe1E-31" value="_last_motion_update" style="edgeLabel;html=1;align=center;verticalAlign=middle;resizable=0;points=[];" parent="mWjgu7GkyDxPOXFMDe1E-30" vertex="1" connectable="0">
          <mxGeometry x="0.3665" y="-4" relative="1" as="geometry">
            <mxPoint x="-24" y="-172" as="offset" />
          </mxGeometry>
        </mxCell>
        <mxCell id="6OGqVxHeLhcwMYVrImcY-144" value="EKF" style="swimlane;fontStyle=1;align=center;verticalAlign=top;childLayout=stackLayout;horizontal=1;startSize=26;horizontalStack=0;resizeParent=1;resizeParentMax=0;resizeLast=0;collapsible=1;marginBottom=0;whiteSpace=wrap;html=1;" parent="1" vertex="1">
          <mxGeometry x="3410" y="613.5" width="340" height="440" as="geometry" />
        </mxCell>
        <mxCell id="mWjgu7GkyDxPOXFMDe1E-2" value="- X: Eigen::VectorXf" style="text;strokeColor=none;fillColor=none;align=left;verticalAlign=top;spacingLeft=4;spacingRight=4;overflow=hidden;rotatable=0;points=[[0,0.5],[1,0.5]];portConstraint=eastwest;whiteSpace=wrap;html=1;" parent="6OGqVxHeLhcwMYVrImcY-144" vertex="1">
          <mxGeometry y="26" width="340" height="26" as="geometry" />
        </mxCell>
        <mxCell id="mWjgu7GkyDxPOXFMDe1E-3" value="- P: Eigen::MatrixXf" style="text;strokeColor=none;fillColor=none;align=left;verticalAlign=top;spacingLeft=4;spacingRight=4;overflow=hidden;rotatable=0;points=[[0,0.5],[1,0.5]];portConstraint=eastwest;whiteSpace=wrap;html=1;" parent="6OGqVxHeLhcwMYVrImcY-144" vertex="1">
          <mxGeometry y="52" width="340" height="26" as="geometry" />
        </mxCell>
        <mxCell id="mWjgu7GkyDxPOXFMDe1E-4" value="- _colors: std::vector&amp;lt;enum&amp;lt;Color&amp;gt;&amp;gt;" style="text;strokeColor=none;fillColor=none;align=left;verticalAlign=top;spacingLeft=4;spacingRight=4;overflow=hidden;rotatable=0;points=[[0,0.5],[1,0.5]];portConstraint=eastwest;whiteSpace=wrap;html=1;" parent="6OGqVxHeLhcwMYVrImcY-144" vertex="1">
          <mxGeometry y="78" width="340" height="26" as="geometry" />
        </mxCell>
        <mxCell id="6OGqVxHeLhcwMYVrImcY-145" value="- _last_update: time_point" style="text;strokeColor=none;fillColor=none;align=left;verticalAlign=top;spacingLeft=4;spacingRight=4;overflow=hidden;rotatable=0;points=[[0,0.5],[1,0.5]];portConstraint=eastwest;whiteSpace=wrap;html=1;" parent="6OGqVxHeLhcwMYVrImcY-144" vertex="1">
          <mxGeometry y="104" width="340" height="26" as="geometry" />
        </mxCell>
        <mxCell id="mWjgu7GkyDxPOXFMDe1E-5" value="- _fixed_map: bool" style="text;strokeColor=none;fillColor=none;align=left;verticalAlign=top;spacingLeft=4;spacingRight=4;overflow=hidden;rotatable=0;points=[[0,0.5],[1,0.5]];portConstraint=eastwest;whiteSpace=wrap;html=1;" parent="6OGqVxHeLhcwMYVrImcY-144" vertex="1">
          <mxGeometry y="130" width="340" height="26" as="geometry" />
        </mxCell>
        <mxCell id="6OGqVxHeLhcwMYVrImcY-146" value="" style="line;strokeWidth=1;fillColor=none;align=left;verticalAlign=middle;spacingTop=-1;spacingLeft=3;spacingRight=3;rotatable=0;labelPosition=right;points=[];portConstraint=eastwest;strokeColor=inherit;" parent="6OGqVxHeLhcwMYVrImcY-144" vertex="1">
          <mxGeometry y="156" width="340" height="8" as="geometry" />
        </mxCell>
        <mxCell id="6OGqVxHeLhcwMYVrImcY-147" value="- discovery(observation_data : ObservationData): int" style="text;strokeColor=none;fillColor=none;align=left;verticalAlign=top;spacingLeft=4;spacingRight=4;overflow=hidden;rotatable=0;points=[[0,0.5],[1,0.5]];portConstraint=eastwest;whiteSpace=wrap;html=1;" parent="6OGqVxHeLhcwMYVrImcY-144" vertex="1">
          <mxGeometry y="164" width="340" height="26" as="geometry" />
        </mxCell>
        <mxCell id="mWjgu7GkyDxPOXFMDe1E-9" value="- get_kalman_gain(H, P, Q : Eigen::MatrixXf): Eigen::MatrixXf" style="text;strokeColor=none;fillColor=none;align=left;verticalAlign=top;spacingLeft=4;spacingRight=4;overflow=hidden;rotatable=0;points=[[0,0.5],[1,0.5]];portConstraint=eastwest;whiteSpace=wrap;html=1;" parent="6OGqVxHeLhcwMYVrImcY-144" vertex="1">
          <mxGeometry y="190" width="340" height="26" as="geometry" />
        </mxCell>
        <mxCell id="mWjgu7GkyDxPOXFMDe1E-10" value="- cone_match(x_from_state, y_from_state, x_from_perception, y_from_perception, distance_to_vehicle : double x5): bool" style="text;strokeColor=none;fillColor=none;align=left;verticalAlign=top;spacingLeft=4;spacingRight=4;overflow=hidden;rotatable=0;points=[[0,0.5],[1,0.5]];portConstraint=eastwest;whiteSpace=wrap;html=1;" parent="6OGqVxHeLhcwMYVrImcY-144" vertex="1">
          <mxGeometry y="216" width="340" height="54" as="geometry" />
        </mxCell>
        <mxCell id="mWjgu7GkyDxPOXFMDe1E-12" value="+ prediction_step(motion_update : MotionUpdate): void" style="text;strokeColor=none;fillColor=none;align=left;verticalAlign=top;spacingLeft=4;spacingRight=4;overflow=hidden;rotatable=0;points=[[0,0.5],[1,0.5]];portConstraint=eastwest;whiteSpace=wrap;html=1;" parent="6OGqVxHeLhcwMYVrImcY-144" vertex="1">
          <mxGeometry y="270" width="340" height="26" as="geometry" />
        </mxCell>
        <mxCell id="mWjgu7GkyDxPOXFMDe1E-13" value="+ correction_step(perception_map : ConeMap): void" style="text;strokeColor=none;fillColor=none;align=left;verticalAlign=top;spacingLeft=4;spacingRight=4;overflow=hidden;rotatable=0;points=[[0,0.5],[1,0.5]];portConstraint=eastwest;whiteSpace=wrap;html=1;" parent="6OGqVxHeLhcwMYVrImcY-144" vertex="1">
          <mxGeometry y="296" width="340" height="26" as="geometry" />
        </mxCell>
        <mxCell id="mWjgu7GkyDxPOXFMDe1E-14" value="+ update(vehicle_state : VehicleState, track_map : ConeMap): void" style="text;strokeColor=none;fillColor=none;align=left;verticalAlign=top;spacingLeft=4;spacingRight=4;overflow=hidden;rotatable=0;points=[[0,0.5],[1,0.5]];portConstraint=eastwest;whiteSpace=wrap;html=1;" parent="6OGqVxHeLhcwMYVrImcY-144" vertex="1">
          <mxGeometry y="322" width="340" height="38" as="geometry" />
        </mxCell>
        <mxCell id="mWjgu7GkyDxPOXFMDe1E-15" value="+ ExtendedKalmanFilter(MotionModel, ObservationModel, Mission): void" style="text;strokeColor=none;fillColor=none;align=left;verticalAlign=top;spacingLeft=4;spacingRight=4;overflow=hidden;rotatable=0;points=[[0,0.5],[1,0.5]];portConstraint=eastwest;whiteSpace=wrap;html=1;" parent="6OGqVxHeLhcwMYVrImcY-144" vertex="1">
          <mxGeometry y="360" width="340" height="40" as="geometry" />
        </mxCell>
        <mxCell id="mWjgu7GkyDxPOXFMDe1E-16" value="+ ExtendedKalmanFilter(MotionModel, ObservationModel): void" style="text;strokeColor=none;fillColor=none;align=left;verticalAlign=top;spacingLeft=4;spacingRight=4;overflow=hidden;rotatable=0;points=[[0,0.5],[1,0.5]];portConstraint=eastwest;whiteSpace=wrap;html=1;" parent="6OGqVxHeLhcwMYVrImcY-144" vertex="1">
          <mxGeometry y="400" width="340" height="40" as="geometry" />
        </mxCell>
        <mxCell id="6OGqVxHeLhcwMYVrImcY-148" value="&lt;i&gt;MotionModel&lt;/i&gt;" style="swimlane;fontStyle=1;align=center;verticalAlign=top;childLayout=stackLayout;horizontal=1;startSize=26;horizontalStack=0;resizeParent=1;resizeParentMax=0;resizeLast=0;collapsible=1;marginBottom=0;whiteSpace=wrap;html=1;" parent="1" vertex="1">
          <mxGeometry x="2990" y="613.5" width="300" height="200" as="geometry" />
        </mxCell>
        <mxCell id="6OGqVxHeLhcwMYVrImcY-149" value="- _process_noise_covariance_matrix: Eigen::MatrixXf" style="text;strokeColor=none;fillColor=none;align=left;verticalAlign=top;spacingLeft=4;spacingRight=4;overflow=hidden;rotatable=0;points=[[0,0.5],[1,0.5]];portConstraint=eastwest;whiteSpace=wrap;html=1;" parent="6OGqVxHeLhcwMYVrImcY-148" vertex="1">
          <mxGeometry y="26" width="300" height="26" as="geometry" />
        </mxCell>
        <mxCell id="6OGqVxHeLhcwMYVrImcY-150" value="" style="line;strokeWidth=1;fillColor=none;align=left;verticalAlign=middle;spacingTop=-1;spacingLeft=3;spacingRight=3;rotatable=0;labelPosition=right;points=[];portConstraint=eastwest;strokeColor=inherit;" parent="6OGqVxHeLhcwMYVrImcY-148" vertex="1">
          <mxGeometry y="52" width="300" height="8" as="geometry" />
        </mxCell>
        <mxCell id="6OGqVxHeLhcwMYVrImcY-151" value="+ MotionModel(Eigen::MatrixXf): void" style="text;strokeColor=none;fillColor=none;align=left;verticalAlign=top;spacingLeft=4;spacingRight=4;overflow=hidden;rotatable=0;points=[[0,0.5],[1,0.5]];portConstraint=eastwest;whiteSpace=wrap;html=1;" parent="6OGqVxHeLhcwMYVrImcY-148" vertex="1">
          <mxGeometry y="60" width="300" height="26" as="geometry" />
        </mxCell>
        <mxCell id="mWjgu7GkyDxPOXFMDe1E-17" value="+ predict_expected_state(expected_state, Eigen::VectorXf, motion_prediction_data : MotionUpdate, time_interval : double): Eigen::VectorXf" style="text;strokeColor=none;fillColor=none;align=left;verticalAlign=top;spacingLeft=4;spacingRight=4;overflow=hidden;rotatable=0;points=[[0,0.5],[1,0.5]];portConstraint=eastwest;whiteSpace=wrap;html=1;" parent="6OGqVxHeLhcwMYVrImcY-148" vertex="1">
          <mxGeometry y="86" width="300" height="54" as="geometry" />
        </mxCell>
        <mxCell id="mWjgu7GkyDxPOXFMDe1E-18" value="+ get_motion_to_state_matrix(expected_state : Eigen::VectorXf, motion_prediction_data : MotionUpdate, time_interval : double): Eigen::MatrixXf" style="text;strokeColor=none;fillColor=none;align=left;verticalAlign=top;spacingLeft=4;spacingRight=4;overflow=hidden;rotatable=0;points=[[0,0.5],[1,0.5]];portConstraint=eastwest;whiteSpace=wrap;html=1;" parent="6OGqVxHeLhcwMYVrImcY-148" vertex="1">
          <mxGeometry y="140" width="300" height="60" as="geometry" />
        </mxCell>
        <mxCell id="6OGqVxHeLhcwMYVrImcY-182" style="edgeStyle=orthogonalEdgeStyle;rounded=0;orthogonalLoop=1;jettySize=auto;html=1;endArrow=block;endFill=0;exitX=0.5;exitY=0;exitDx=0;exitDy=0;" parent="1" source="6OGqVxHeLhcwMYVrImcY-152" edge="1">
          <mxGeometry relative="1" as="geometry">
            <mxPoint x="3140" y="813.5" as="targetPoint" />
          </mxGeometry>
        </mxCell>
        <mxCell id="6OGqVxHeLhcwMYVrImcY-152" value="ImuVelocityModel" style="swimlane;fontStyle=1;align=center;verticalAlign=top;childLayout=stackLayout;horizontal=1;startSize=26;horizontalStack=0;resizeParent=1;resizeParentMax=0;resizeLast=0;collapsible=1;marginBottom=0;whiteSpace=wrap;html=1;" parent="1" vertex="1">
          <mxGeometry x="2920" y="911.5" width="160" height="34" as="geometry" />
        </mxCell>
        <mxCell id="6OGqVxHeLhcwMYVrImcY-154" value="" style="line;strokeWidth=1;fillColor=none;align=left;verticalAlign=middle;spacingTop=-1;spacingLeft=3;spacingRight=3;rotatable=0;labelPosition=right;points=[];portConstraint=eastwest;strokeColor=inherit;" parent="6OGqVxHeLhcwMYVrImcY-152" vertex="1">
          <mxGeometry y="26" width="160" height="8" as="geometry" />
        </mxCell>
        <mxCell id="6OGqVxHeLhcwMYVrImcY-156" value="NormalVelocityModel" style="swimlane;fontStyle=1;align=center;verticalAlign=top;childLayout=stackLayout;horizontal=1;startSize=26;horizontalStack=0;resizeParent=1;resizeParentMax=0;resizeLast=0;collapsible=1;marginBottom=0;whiteSpace=wrap;html=1;" parent="1" vertex="1">
          <mxGeometry x="3220" y="911.5" width="160" height="34" as="geometry" />
        </mxCell>
        <mxCell id="6OGqVxHeLhcwMYVrImcY-158" value="" style="line;strokeWidth=1;fillColor=none;align=left;verticalAlign=middle;spacingTop=-1;spacingLeft=3;spacingRight=3;rotatable=0;labelPosition=right;points=[];portConstraint=eastwest;strokeColor=inherit;" parent="6OGqVxHeLhcwMYVrImcY-156" vertex="1">
          <mxGeometry y="26" width="160" height="8" as="geometry" />
        </mxCell>
        <mxCell id="mWjgu7GkyDxPOXFMDe1E-36" style="edgeStyle=orthogonalEdgeStyle;rounded=0;orthogonalLoop=1;jettySize=auto;html=1;endArrow=open;endFill=0;dashed=1;" parent="1" source="6OGqVxHeLhcwMYVrImcY-160" target="mWjgu7GkyDxPOXFMDe1E-6" edge="1">
          <mxGeometry relative="1" as="geometry" />
        </mxCell>
        <mxCell id="6OGqVxHeLhcwMYVrImcY-160" value="ObservationModel" style="swimlane;fontStyle=1;align=center;verticalAlign=top;childLayout=stackLayout;horizontal=1;startSize=26;horizontalStack=0;resizeParent=1;resizeParentMax=0;resizeLast=0;collapsible=1;marginBottom=0;whiteSpace=wrap;html=1;" parent="1" vertex="1">
          <mxGeometry x="3820" y="615" width="360" height="220" as="geometry" />
        </mxCell>
        <mxCell id="6OGqVxHeLhcwMYVrImcY-161" value="- _observation_noise_covariance_matrix: Eigen::Matrix2f" style="text;strokeColor=none;fillColor=none;align=left;verticalAlign=top;spacingLeft=4;spacingRight=4;overflow=hidden;rotatable=0;points=[[0,0.5],[1,0.5]];portConstraint=eastwest;whiteSpace=wrap;html=1;" parent="6OGqVxHeLhcwMYVrImcY-160" vertex="1">
          <mxGeometry y="26" width="360" height="26" as="geometry" />
        </mxCell>
        <mxCell id="6OGqVxHeLhcwMYVrImcY-162" value="" style="line;strokeWidth=1;fillColor=none;align=left;verticalAlign=middle;spacingTop=-1;spacingLeft=3;spacingRight=3;rotatable=0;labelPosition=right;points=[];portConstraint=eastwest;strokeColor=inherit;" parent="6OGqVxHeLhcwMYVrImcY-160" vertex="1">
          <mxGeometry y="52" width="360" height="8" as="geometry" />
        </mxCell>
        <mxCell id="6OGqVxHeLhcwMYVrImcY-163" value="+ ObservationModel(observation_noise_covariance_matrix: Eigen::Matrix2f): void" style="text;strokeColor=none;fillColor=none;align=left;verticalAlign=top;spacingLeft=4;spacingRight=4;overflow=hidden;rotatable=0;points=[[0,0.5],[1,0.5]];portConstraint=eastwest;whiteSpace=wrap;html=1;" parent="6OGqVxHeLhcwMYVrImcY-160" vertex="1">
          <mxGeometry y="60" width="360" height="40" as="geometry" />
        </mxCell>
        <mxCell id="mWjgu7GkyDxPOXFMDe1E-20" value="+ observation_model(expected_state : Eigen::VectorXf, landmark_index : int): Eigen::Vector2f" style="text;strokeColor=none;fillColor=none;align=left;verticalAlign=top;spacingLeft=4;spacingRight=4;overflow=hidden;rotatable=0;points=[[0,0.5],[1,0.5]];portConstraint=eastwest;whiteSpace=wrap;html=1;" parent="6OGqVxHeLhcwMYVrImcY-160" vertex="1">
          <mxGeometry y="100" width="360" height="40" as="geometry" />
        </mxCell>
        <mxCell id="mWjgu7GkyDxPOXFMDe1E-21" value="+ inverse_observation_model(expected_state : Eigen::VectorXf, observation_data : ObservationData): Eigen::Vector2f" style="text;strokeColor=none;fillColor=none;align=left;verticalAlign=top;spacingLeft=4;spacingRight=4;overflow=hidden;rotatable=0;points=[[0,0.5],[1,0.5]];portConstraint=eastwest;whiteSpace=wrap;html=1;" parent="6OGqVxHeLhcwMYVrImcY-160" vertex="1">
          <mxGeometry y="140" width="360" height="40" as="geometry" />
        </mxCell>
        <mxCell id="mWjgu7GkyDxPOXFMDe1E-22" value="+ get_state_to_observation(expected_state : Eigen::VectorXf, landmark_index : int, state_size : int): Eigen::MatrixXf" style="text;strokeColor=none;fillColor=none;align=left;verticalAlign=top;spacingLeft=4;spacingRight=4;overflow=hidden;rotatable=0;points=[[0,0.5],[1,0.5]];portConstraint=eastwest;whiteSpace=wrap;html=1;" parent="6OGqVxHeLhcwMYVrImcY-160" vertex="1">
          <mxGeometry y="180" width="360" height="40" as="geometry" />
        </mxCell>
        <mxCell id="6OGqVxHeLhcwMYVrImcY-164" value="VehicleState" style="swimlane;fontStyle=0;childLayout=stackLayout;horizontal=1;startSize=26;fillColor=none;horizontalStack=0;resizeParent=1;resizeParentMax=0;resizeLast=0;collapsible=1;marginBottom=0;whiteSpace=wrap;html=1;" parent="1" vertex="1">
          <mxGeometry x="3060" y="412" width="140" height="78" as="geometry" />
        </mxCell>
        <mxCell id="6OGqVxHeLhcwMYVrImcY-165" value="+ pose: Pose" style="text;strokeColor=none;fillColor=none;align=left;verticalAlign=top;spacingLeft=4;spacingRight=4;overflow=hidden;rotatable=0;points=[[0,0.5],[1,0.5]];portConstraint=eastwest;whiteSpace=wrap;html=1;" parent="6OGqVxHeLhcwMYVrImcY-164" vertex="1">
          <mxGeometry y="26" width="140" height="26" as="geometry" />
        </mxCell>
        <mxCell id="6OGqVxHeLhcwMYVrImcY-166" value="+ last_update: timepoint" style="text;strokeColor=none;fillColor=none;align=left;verticalAlign=top;spacingLeft=4;spacingRight=4;overflow=hidden;rotatable=0;points=[[0,0.5],[1,0.5]];portConstraint=eastwest;whiteSpace=wrap;html=1;" parent="6OGqVxHeLhcwMYVrImcY-164" vertex="1">
          <mxGeometry y="52" width="140" height="26" as="geometry" />
        </mxCell>
        <mxCell id="6OGqVxHeLhcwMYVrImcY-172" value="MotionUpdate" style="swimlane;fontStyle=0;childLayout=stackLayout;horizontal=1;startSize=26;fillColor=none;horizontalStack=0;resizeParent=1;resizeParentMax=0;resizeLast=0;collapsible=1;marginBottom=0;whiteSpace=wrap;html=1;" parent="1" vertex="1">
          <mxGeometry x="3080" y="168" width="190" height="182" as="geometry">
            <mxRectangle x="3170" y="254" width="120" height="30" as="alternateBounds" />
          </mxGeometry>
        </mxCell>
        <mxCell id="6OGqVxHeLhcwMYVrImcY-173" value="+ translational_velocity: double" style="text;strokeColor=none;fillColor=none;align=left;verticalAlign=top;spacingLeft=4;spacingRight=4;overflow=hidden;rotatable=0;points=[[0,0.5],[1,0.5]];portConstraint=eastwest;whiteSpace=wrap;html=1;" parent="6OGqVxHeLhcwMYVrImcY-172" vertex="1">
          <mxGeometry y="26" width="190" height="26" as="geometry" />
        </mxCell>
        <mxCell id="6OGqVxHeLhcwMYVrImcY-174" value="+ translational_velocity_x: double" style="text;strokeColor=none;fillColor=none;align=left;verticalAlign=top;spacingLeft=4;spacingRight=4;overflow=hidden;rotatable=0;points=[[0,0.5],[1,0.5]];portConstraint=eastwest;whiteSpace=wrap;html=1;" parent="6OGqVxHeLhcwMYVrImcY-172" vertex="1">
          <mxGeometry y="52" width="190" height="26" as="geometry" />
        </mxCell>
        <mxCell id="6OGqVxHeLhcwMYVrImcY-175" value="+ translational_velocity_y: double" style="text;strokeColor=none;fillColor=none;align=left;verticalAlign=top;spacingLeft=4;spacingRight=4;overflow=hidden;rotatable=0;points=[[0,0.5],[1,0.5]];portConstraint=eastwest;whiteSpace=wrap;html=1;" parent="6OGqVxHeLhcwMYVrImcY-172" vertex="1">
          <mxGeometry y="78" width="190" height="26" as="geometry" />
        </mxCell>
        <mxCell id="6OGqVxHeLhcwMYVrImcY-187" value="+ rotational_velocity: double" style="text;strokeColor=none;fillColor=none;align=left;verticalAlign=top;spacingLeft=4;spacingRight=4;overflow=hidden;rotatable=0;points=[[0,0.5],[1,0.5]];portConstraint=eastwest;whiteSpace=wrap;html=1;" parent="6OGqVxHeLhcwMYVrImcY-172" vertex="1">
          <mxGeometry y="104" width="190" height="26" as="geometry" />
        </mxCell>
        <mxCell id="6OGqVxHeLhcwMYVrImcY-193" value="+ steering_angle: double" style="text;strokeColor=none;fillColor=none;align=left;verticalAlign=top;spacingLeft=4;spacingRight=4;overflow=hidden;rotatable=0;points=[[0,0.5],[1,0.5]];portConstraint=eastwest;whiteSpace=wrap;html=1;" parent="6OGqVxHeLhcwMYVrImcY-172" vertex="1">
          <mxGeometry y="130" width="190" height="26" as="geometry" />
        </mxCell>
        <mxCell id="6OGqVxHeLhcwMYVrImcY-194" value="+ last_update: timepoint" style="text;strokeColor=none;fillColor=none;align=left;verticalAlign=top;spacingLeft=4;spacingRight=4;overflow=hidden;rotatable=0;points=[[0,0.5],[1,0.5]];portConstraint=eastwest;whiteSpace=wrap;html=1;" parent="6OGqVxHeLhcwMYVrImcY-172" vertex="1">
          <mxGeometry y="156" width="190" height="26" as="geometry" />
        </mxCell>
        <mxCell id="6OGqVxHeLhcwMYVrImcY-176" value="ConeMap" style="swimlane;fontStyle=0;childLayout=stackLayout;horizontal=1;startSize=26;fillColor=none;horizontalStack=0;resizeParent=1;resizeParentMax=0;resizeLast=0;collapsible=1;marginBottom=0;whiteSpace=wrap;html=1;" parent="1" vertex="1">
          <mxGeometry x="3890" y="170" width="250" height="78" as="geometry" />
        </mxCell>
        <mxCell id="6OGqVxHeLhcwMYVrImcY-177" value="+ map: std::map&amp;lt;Position, enum&amp;lt;Color&amp;gt;&amp;gt;" style="text;strokeColor=none;fillColor=none;align=left;verticalAlign=top;spacingLeft=4;spacingRight=4;overflow=hidden;rotatable=0;points=[[0,0.5],[1,0.5]];portConstraint=eastwest;whiteSpace=wrap;html=1;" parent="6OGqVxHeLhcwMYVrImcY-176" vertex="1">
          <mxGeometry y="26" width="250" height="26" as="geometry" />
        </mxCell>
        <mxCell id="6OGqVxHeLhcwMYVrImcY-178" value="+ last_update: timepoint" style="text;strokeColor=none;fillColor=none;align=left;verticalAlign=top;spacingLeft=4;spacingRight=4;overflow=hidden;rotatable=0;points=[[0,0.5],[1,0.5]];portConstraint=eastwest;whiteSpace=wrap;html=1;" parent="6OGqVxHeLhcwMYVrImcY-176" vertex="1">
          <mxGeometry y="52" width="250" height="26" as="geometry" />
        </mxCell>
        <mxCell id="6OGqVxHeLhcwMYVrImcY-181" style="edgeStyle=orthogonalEdgeStyle;rounded=0;orthogonalLoop=1;jettySize=auto;html=1;endArrow=block;endFill=0;exitX=0.5;exitY=0;exitDx=0;exitDy=0;" parent="1" source="6OGqVxHeLhcwMYVrImcY-156" edge="1">
          <mxGeometry relative="1" as="geometry">
            <mxPoint x="3140" y="813.5" as="targetPoint" />
          </mxGeometry>
        </mxCell>
        <mxCell id="mWjgu7GkyDxPOXFMDe1E-6" value="ObservationData" style="swimlane;fontStyle=0;childLayout=stackLayout;horizontal=1;startSize=26;fillColor=none;horizontalStack=0;resizeParent=1;resizeParentMax=0;resizeLast=0;collapsible=1;marginBottom=0;whiteSpace=wrap;html=1;" parent="1" vertex="1">
          <mxGeometry x="3930" y="452" width="140" height="78" as="geometry" />
        </mxCell>
        <mxCell id="mWjgu7GkyDxPOXFMDe1E-7" value="+ position: Position" style="text;strokeColor=none;fillColor=none;align=left;verticalAlign=top;spacingLeft=4;spacingRight=4;overflow=hidden;rotatable=0;points=[[0,0.5],[1,0.5]];portConstraint=eastwest;whiteSpace=wrap;html=1;" parent="mWjgu7GkyDxPOXFMDe1E-6" vertex="1">
          <mxGeometry y="26" width="140" height="26" as="geometry" />
        </mxCell>
        <mxCell id="mWjgu7GkyDxPOXFMDe1E-8" value="+ color: enum&amp;lt;Color&amp;gt;" style="text;strokeColor=none;fillColor=none;align=left;verticalAlign=top;spacingLeft=4;spacingRight=4;overflow=hidden;rotatable=0;points=[[0,0.5],[1,0.5]];portConstraint=eastwest;whiteSpace=wrap;html=1;" parent="mWjgu7GkyDxPOXFMDe1E-6" vertex="1">
          <mxGeometry y="52" width="140" height="26" as="geometry" />
        </mxCell>
      </root>
    </mxGraphModel>
  </diagram>
</mxfile>
